<?xml version="1.0" encoding="UTF-8" standalone="no"?>
<!-- Filename: c21ba1a4c9d11cfbf2818df185319647a5f643ae2a6e730f9623e8683a5b4a49.svg -->
<!-- Created with https://svgstud.io -->
<svg
  version="1.1"
  xmlns="http://www.w3.org/2000/svg"
  xmlns:xlink="http://www.w3.org/1999/xlink"
  xmlns:svg="http://www.w3.org/2000/svg"
  xmlns:rdf="http://www.w3.org/1999/02/22-rdf-syntax-ns#"
  xmlns:cc="http://creativecommons.org/ns#"
  xmlns:dc="http://purl.org/dc/elements/1.1/"
  viewBox="0 0  768"
  width="768"
  height="768"
  role="img"
  aria-labelledby="titleID descID"
>
  <title id="titleID">Companion TV</title>
  <desc id="descID">AI-generated SVG illustration: Companion TV, created on https://svgstud.io</desc>

  <rect width="100%" height="100%" fill="white" />

  <metadata>
    Created by https://svgstud.io and licensed under CC-BY-SA 4.0 license. Please attribute https://svgstud.io
  </metadata>
  <metadata>
    Companion TV
  </metadata>
  <metadata>
    7
  </metadata>
  <metadata>
    <rdf:RDF
      xmlns:rdf="http://www.w3.org/1999/02/22-rdf-syntax-ns#"
      xmlns:cc="http://creativecommons.org/ns#"
      xmlns:dc="http://purl.org/dc/elements/1.1/"
    >
      <cc:Work rdf:about="">
        <cc:license rdf:resource="http://creativecommons.org/licenses/by-sa/4.0/" />
        <dc:creator>
          <cc:Agent>
            <dc:title>https://svgstud.io</dc:title>
          </cc:Agent>
        </dc:creator>
      </cc:Work>
      <cc:License rdf:about="http://creativecommons.org/licenses/by-sa/4.0/">
        <cc:permits rdf:resource="http://creativecommons.org/ns#Reproduction" />
        <cc:permits rdf:resource="http://creativecommons.org/ns#Distribution" />
        <cc:requires rdf:resource="http://creativecommons.org/ns#Notice" />
        <cc:requires rdf:resource="http://creativecommons.org/ns#Attribution" />
        <cc:permits rdf:resource="http://creativecommons.org/ns#DerivativeWorks" />
        <cc:requires rdf:resource="http://creativecommons.org/ns#ShareAlike" />
      </cc:License>
    </rdf:RDF>
  </metadata>
  <metadata id="uid">c21ba1a4c9d11cfbf2818df185319647a5f643ae2a6e730f9623e8683a5b4a49</metadata>

  <path stroke="none" fill="black" fill-rule="evenodd" d="M340.85,576.99C337.05,576.99 333.30,576.36 331.50,575.42C329.85,574.56 327.67,573.11 326.66,572.19C325.64,571.27 324.30,569.62 323.68,568.51C323.05,567.41 322.08,559.98 321.52,552.00C320.50,537.50 320.50,537.50 308.16,531.17C301.37,527.69 295.60,525.06 295.34,525.33C295.08,525.59 293.98,529.34 292.90,533.65C291.61,538.83 290.10,542.35 288.46,543.99C286.36,546.09 285.08,546.47 280.24,546.40C276.46,546.34 273.06,545.57 270.27,544.15C267.94,542.95 265.35,540.64 264.50,539.01C263.32,536.72 262.75,529.98 262.01,509.77C261.48,495.32 261.04,482.75 261.02,481.82C261.01,480.79 258.97,479.18 255.75,477.65C252.86,476.28 248.60,473.78 246.28,472.10C243.95,470.41 241.06,467.11 239.85,464.76C237.78,460.74 237.56,458.03 235.89,416.00C234.92,391.52 233.54,356.65 232.82,338.50C232.09,320.35 231.50,294.21 231.50,280.41C231.50,255.33 231.50,255.33 234.26,251.34C235.78,249.15 238.73,246.40 240.81,245.23C242.89,244.06 246.60,242.65 249.05,242.11C251.50,241.57 272.85,238.62 296.50,235.56C320.15,232.50 360.40,227.30 385.94,224.00C411.49,220.70 435.84,218.00 440.06,218.00C445.60,218.00 455.80,219.69 476.62,224.04C492.50,227.36 508.75,230.91 512.72,231.93C516.69,232.95 521.41,234.64 523.21,235.69C525.00,236.74 527.83,239.53 529.49,241.89C532.50,246.19 532.50,246.19 532.26,355.63C532.02,465.08 532.02,465.08 529.84,470.16C528.42,473.46 526.28,476.23 523.75,478.07C521.60,479.62 518.30,481.41 516.42,482.03C513.00,483.16 513.00,483.16 512.92,498.83C512.87,507.45 512.52,519.99 512.14,526.70C511.50,537.79 511.21,539.15 508.97,541.54C507.61,542.99 504.93,544.85 503.00,545.67C500.65,546.68 497.51,547.03 493.47,546.72C490.11,546.47 485.58,545.32 483.24,544.12C480.92,542.94 478.34,540.92 477.49,539.63C476.65,538.34 475.28,533.76 474.46,529.46C473.64,525.15 472.82,521.49 472.64,521.31C472.47,521.13 464.26,522.55 454.41,524.46C444.56,526.37 421.88,530.45 404.01,533.53C386.14,536.61 369.38,539.58 366.77,540.14C364.16,540.70 361.77,541.57 361.46,542.06C361.16,542.55 360.10,548.48 359.11,555.23C358.13,561.98 356.59,568.90 355.70,570.62C354.81,572.33 352.54,574.47 350.64,575.37C348.57,576.35 344.67,577.00 340.85,576.99zM337.54,567.00C341.08,567.00 341.86,566.64 342.36,564.75C342.69,563.51 343.43,554.62 344.01,545.00C344.59,535.38 345.28,526.49 345.55,525.25C346.00,523.19 346.60,523.00 352.80,523.00C356.53,523.00 369.15,521.17 381.03,518.91C392.84,516.67 409.48,513.54 418.00,511.97C426.52,510.40 443.18,507.25 455.00,504.97C466.82,502.69 478.36,500.59 480.64,500.30C484.78,499.76 484.78,499.76 485.36,504.63C485.67,507.31 486.20,514.23 486.53,520.00C486.87,525.77 487.60,531.99 488.16,533.81C489.03,536.60 489.61,537.07 491.85,536.81C494.50,536.50 494.50,536.50 495.00,512.75C495.50,489.00 495.50,489.00 492.83,489.00C491.36,489.00 481.24,490.55 470.33,492.45C459.42,494.35 433.40,498.86 412.50,502.46C391.60,506.06 372.02,509.44 369.00,509.96C365.98,510.48 358.82,511.44 353.10,512.08C347.37,512.72 339.69,513.03 336.03,512.77C331.10,512.42 327.04,511.24 320.43,508.27C315.52,506.05 302.63,500.14 291.80,495.12C280.96,490.10 271.56,486.00 270.92,486.00C270.03,486.00 269.85,491.94 270.19,509.94C270.53,527.51 271.00,534.29 271.95,535.44C272.66,536.30 274.10,537.00 275.15,537.00C276.22,537.00 277.44,535.98 277.94,534.66C278.43,533.37 279.84,525.38 281.06,516.91C282.29,508.43 283.64,501.11 284.07,500.62C284.50,500.14 291.52,502.69 299.68,506.28C307.83,509.86 317.32,513.81 320.77,515.04C325.30,516.66 327.17,517.86 327.52,519.39C327.79,520.55 328.40,530.86 328.89,542.30C329.64,559.98 330.04,563.38 331.54,565.05C332.76,566.40 334.61,567.00 337.54,567.00zM318.00,494.73C319.27,494.51 319.42,492.51 319.00,481.49C318.73,474.34 318.50,462.01 318.50,454.08C318.50,439.67 318.50,439.67 325.50,439.88C329.42,440.00 338.89,438.99 347.00,437.60C354.98,436.23 375.68,432.59 393.00,429.51C410.32,426.42 435.98,421.64 450.00,418.87C464.02,416.11 482.70,412.30 491.50,410.42C500.30,408.54 508.49,406.78 509.69,406.50C511.39,406.10 512.00,405.05 512.44,401.75C512.75,399.41 513.11,390.41 513.25,381.75C513.46,368.31 513.28,366.00 512.00,365.98C511.18,365.98 503.89,367.16 495.81,368.62C487.73,370.07 480.42,370.99 479.56,370.66C478.70,370.33 478.00,369.68 478.00,369.22C478.00,368.76 478.56,367.64 479.25,366.73C480.09,365.61 485.50,364.07 495.90,362.00C504.38,360.31 511.63,358.73 512.01,358.49C512.40,358.25 513.05,337.01 513.45,311.28C513.85,285.55 513.86,263.26 513.48,261.75C512.85,259.25 512.37,259.00 508.18,259.00C505.65,259.00 497.73,259.72 490.58,260.59C482.52,261.57 476.14,262.91 473.82,264.09C471.76,265.15 469.56,266.95 468.95,268.10C468.26,269.38 467.86,275.52 467.91,283.85C467.95,291.36 468.49,315.73 469.11,338.00C469.73,360.27 469.96,382.04 469.64,386.38C469.20,392.20 468.40,395.36 466.56,398.50C465.07,401.03 462.65,403.41 460.55,404.41C458.62,405.33 450.39,407.40 442.27,409.01C434.15,410.62 411.30,414.63 391.50,417.91C371.70,421.19 351.80,424.40 347.28,425.05C342.76,425.69 335.74,426.05 331.68,425.85C325.50,425.54 323.61,425.00 320.09,422.56C317.77,420.96 315.45,418.84 314.92,417.85C314.39,416.86 313.55,412.78 313.06,408.78C312.57,404.77 311.36,376.02 310.39,344.87C308.95,299.21 308.85,287.44 309.85,284.10C310.53,281.83 312.47,278.40 314.15,276.48C316.25,274.09 318.82,272.54 322.36,271.56C325.19,270.77 331.77,269.61 337.00,268.99C342.23,268.37 354.60,266.78 364.50,265.47C374.40,264.16 396.00,261.51 412.50,259.60C429.00,257.68 449.93,255.39 459.00,254.51C468.07,253.62 480.68,252.24 487.00,251.43C493.32,250.62 501.65,249.47 505.50,248.86C509.35,248.26 513.11,247.44 513.85,247.04C514.88,246.48 514.59,245.83 512.66,244.30C511.25,243.20 507.37,241.72 504.03,241.01C499.77,240.10 493.26,239.89 482.23,240.29C472.65,240.64 452.63,242.66 431.00,245.46C411.48,247.99 380.43,252.08 362.00,254.55C343.57,257.03 324.57,259.76 319.76,260.63C313.06,261.84 310.15,262.90 307.30,265.16C305.25,266.79 302.50,269.64 301.18,271.49C298.77,274.87 298.77,274.87 299.85,304.69C300.45,321.08 301.68,368.25 302.58,409.50C303.70,460.62 304.59,485.30 305.37,487.00C306.01,488.38 308.77,490.73 311.51,492.24C314.26,493.75 317.18,494.87 318.00,494.73zM341.33,492.80C346.06,492.34 374.80,487.48 405.21,481.99C435.62,476.49 468.15,470.63 477.50,468.94C486.85,467.26 497.49,465.21 501.15,464.39C505.08,463.50 508.55,462.05 509.65,460.84C511.29,459.03 511.57,456.34 512.08,437.65C512.39,426.02 512.51,416.21 512.33,415.85C512.15,415.49 508.07,416.07 503.25,417.13C498.44,418.19 478.98,422.18 460.00,425.99C441.02,429.80 414.93,434.94 402.00,437.40C389.07,439.87 374.68,442.57 370.00,443.42C365.32,444.26 355.29,445.87 347.70,446.98C340.10,448.09 331.89,449.00 329.45,449.00C325.00,449.00 325.00,449.00 325.11,460.75C325.16,467.21 325.50,476.55 325.86,481.50C326.49,490.33 326.56,490.53 329.62,492.06C332.16,493.33 334.34,493.47 341.33,492.80zM348.01,471.00C345.00,471.00 345.00,471.00 345.00,464.15C345.00,457.30 345.00,457.30 353.75,456.09C358.56,455.42 378.70,452.24 398.50,449.01C418.30,445.78 436.05,442.99 437.94,442.82C441.22,442.51 441.42,442.68 442.23,446.50C442.74,448.89 442.70,451.35 442.12,452.61C441.29,454.46 438.43,455.25 419.83,458.83C408.10,461.09 387.82,464.75 374.76,466.97C361.70,469.19 349.67,471.00 348.01,471.00zM466.82,464.00C466.37,464.00 466.00,458.38 466.00,451.52C466.00,442.35 466.43,437.97 467.62,434.99C468.51,432.76 470.15,430.45 471.27,429.86C473.17,428.84 473.25,428.98 472.57,432.14C472.16,433.99 471.47,437.98 471.02,441.00C470.57,444.02 469.62,450.44 468.92,455.25C468.21,460.06 467.27,464.00 466.82,464.00zM487.73,460.76C482.81,461.04 480.83,460.69 478.31,459.11C476.56,458.01 474.59,456.10 473.93,454.86C473.27,453.63 472.73,451.01 472.73,449.04C472.73,447.07 473.66,443.63 474.79,441.41C475.93,439.18 478.68,435.72 480.90,433.71C483.13,431.70 486.09,429.76 487.48,429.42C488.87,429.07 491.51,429.06 493.35,429.41C495.18,429.75 497.60,431.04 498.72,432.27C499.83,433.49 501.26,435.48 501.88,436.68C502.49,437.89 503.00,440.97 503.00,443.53C503.00,446.10 502.30,449.66 501.45,451.46C500.60,453.25 498.57,456.00 496.94,457.56C494.45,459.95 492.96,460.46 487.73,460.76zM490.33,454.78C491.34,454.26 492.81,452.31 493.58,450.45C494.36,448.59 495.00,445.77 495.00,444.19C495.00,442.59 494.12,440.51 493.03,439.52C491.36,438.02 490.61,437.92 488.22,438.91C486.66,439.56 484.62,441.37 483.69,442.95C482.76,444.52 482.00,447.13 482.00,448.75C482.00,450.37 482.79,452.38 483.75,453.21C484.71,454.05 486.18,454.96 487.00,455.23C487.82,455.51 489.33,455.30 490.33,454.78zM289.21,380.50C289.61,358.50 290.32,326.32 290.78,309.00C291.54,280.40 291.81,277.09 293.67,273.00C294.80,270.52 296.91,267.41 298.36,266.08C299.81,264.74 301.00,263.34 301.00,262.96C301.00,262.58 298.86,261.99 296.25,261.65C293.64,261.31 282.57,259.38 271.66,257.35C257.31,254.69 251.12,253.93 249.28,254.59C247.87,255.09 245.85,257.07 244.79,259.00C243.17,261.93 242.95,263.73 243.44,270.11C243.76,274.30 244.84,280.83 245.85,284.61C246.85,288.40 250.44,299.24 253.82,308.71C257.21,318.17 262.94,335.95 266.57,348.21C270.19,360.47 275.18,377.25 277.65,385.50C280.13,393.75 283.58,405.00 285.32,410.50C288.49,420.50 288.49,420.50 289.21,380.50zM388.00,400.54C395.88,400.24 405.13,399.21 410.22,398.06C415.02,396.98 419.89,395.59 421.04,394.98C422.19,394.36 424.44,391.80 426.04,389.28C427.64,386.76 430.40,380.62 432.18,375.64C434.01,370.54 437.75,363.07 440.75,358.54C445.99,350.65 446.04,350.49 443.64,350.19C442.29,350.02 437.72,351.05 433.47,352.48C429.22,353.91 425.58,354.92 425.39,354.73C425.20,354.54 425.71,353.43 426.53,352.26C427.35,351.09 432.70,346.52 438.43,342.10C444.16,337.68 449.56,333.04 450.44,331.79C451.50,330.27 451.66,329.39 450.92,329.14C450.31,328.94 447.14,329.33 443.88,330.03C440.62,330.72 437.69,331.03 437.38,330.71C437.06,330.40 438.23,328.08 439.96,325.56C441.69,323.04 443.76,319.42 444.56,317.52C445.35,315.62 446.00,313.82 446.00,313.53C446.00,313.24 444.99,313.00 443.75,313.00C442.51,313.00 438.80,314.29 435.50,315.86C432.20,317.42 425.73,321.71 421.12,325.39C416.51,329.06 412.52,331.86 412.27,331.60C412.01,331.34 413.08,328.76 414.65,325.86C416.25,322.90 421.91,316.17 427.53,310.54C433.05,305.02 438.16,299.05 438.90,297.27C439.63,295.49 439.94,292.91 439.59,291.52C439.25,290.13 438.45,289.00 437.82,289.00C437.18,289.00 431.97,291.51 426.24,294.57C420.50,297.63 415.58,299.91 415.29,299.63C415.01,299.34 415.36,293.68 416.08,287.04C417.06,277.93 417.09,274.69 416.22,273.82C415.35,272.95 413.68,273.59 409.40,276.43C406.28,278.50 400.72,283.21 397.04,286.89C393.25,290.68 389.20,295.94 387.69,299.04C386.23,302.04 384.28,307.65 383.36,311.50C382.45,315.35 381.36,318.88 380.94,319.35C380.53,319.82 379.64,317.73 378.96,314.71C377.86,309.79 377.97,308.20 380.00,299.85C381.26,294.71 382.49,290.13 382.74,289.68C383.00,289.22 383.87,289.79 384.67,290.94C385.48,292.09 386.56,292.77 387.07,292.46C387.58,292.14 388.00,289.77 387.99,287.19C387.99,284.61 387.52,280.83 386.96,278.79C386.39,276.74 385.50,274.81 384.98,274.49C384.47,274.17 382.70,274.90 381.05,276.12C379.40,277.34 376.30,280.85 374.16,283.92C372.01,286.99 369.02,291.98 367.51,295.00C366.00,298.02 364.29,301.09 363.72,301.80C362.90,302.82 361.62,302.06 357.86,298.36C355.21,295.75 352.76,293.91 352.40,294.26C352.05,294.62 351.15,297.52 350.40,300.70C349.64,303.89 349.03,310.32 349.04,315.00C349.04,321.23 349.56,324.63 350.96,327.73C352.02,330.05 352.48,332.20 351.99,332.51C351.50,332.81 348.49,332.00 345.30,330.70C342.11,329.40 338.25,328.03 336.72,327.65C334.77,327.16 333.80,327.37 333.42,328.35C333.12,329.12 334.33,333.52 336.09,338.13C337.86,342.73 340.75,348.75 342.52,351.50C344.28,354.25 346.91,357.59 348.36,358.92C349.81,360.26 351.00,361.72 351.00,362.17C351.00,362.63 350.16,363.00 349.13,363.00C348.11,363.00 344.95,362.04 342.11,360.86C339.27,359.68 336.66,359.01 336.30,359.37C335.94,359.73 336.34,361.48 337.19,363.26C338.04,365.04 341.58,370.32 345.05,375.00C348.52,379.68 353.64,385.91 356.43,388.86C359.21,391.80 362.79,395.14 364.38,396.27C365.97,397.40 368.90,398.94 370.89,399.70C373.58,400.71 377.95,400.93 388.00,400.54zM382.91,376.71C378.61,376.90 377.78,376.62 376.90,374.68C376.21,373.15 376.21,371.58 376.92,369.72C377.48,368.22 378.56,367.00 379.30,367.00C380.04,367.00 381.57,368.01 382.69,369.25C383.82,370.49 385.45,372.62 386.32,374.00C387.90,376.50 387.90,376.50 382.91,376.71zM403.43,376.00C402.10,376.00 401.00,375.51 401.00,374.90C401.00,374.30 401.73,372.26 402.63,370.37C403.53,368.48 405.08,366.49 406.07,365.96C407.48,365.21 408.23,365.49 409.44,367.22C410.30,368.44 411.00,370.48 411.00,371.75C411.00,373.30 410.16,374.37 408.43,375.02C407.02,375.56 404.77,376.00 403.43,376.00zM278.04,360.97C277.22,362.27 277.05,362.27 276.59,360.97C276.31,360.16 275.18,355.90 274.09,351.50C273.00,347.10 271.18,338.05 270.05,331.39C268.39,321.60 268.02,315.27 268.12,298.39C268.18,286.90 268.52,276.15 268.87,274.50C269.35,272.25 270.13,271.44 272.00,271.24C273.38,271.10 275.15,271.40 275.94,271.92C276.81,272.48 277.68,275.55 278.14,279.68C278.56,283.43 278.91,302.93 278.93,323.00C278.95,343.88 278.57,360.13 278.04,360.97zM476.09,359.46C475.38,361.29 475.28,361.25 474.71,358.96C474.38,357.61 473.82,338.95 473.48,317.50C473.12,294.59 473.24,277.26 473.78,275.50C474.71,272.50 474.71,272.50 475.85,276.50C476.62,279.20 476.97,292.97 476.92,319.00C476.89,340.18 476.51,358.38 476.09,359.46zM493.49,340.68C487.79,341.22 487.17,341.07 485.65,338.91C484.74,337.61 484.00,335.02 484.00,333.14C484.00,331.27 484.52,327.99 485.16,325.87C485.80,323.74 486.74,322.00 487.25,322.00C487.76,322.00 488.96,322.96 489.91,324.14C491.59,326.21 491.90,326.24 498.34,324.96C503.49,323.93 505.30,323.90 506.21,324.81C506.86,325.46 507.35,327.63 507.29,329.64C507.24,331.64 506.65,334.29 505.99,335.53C505.32,336.77 503.63,338.30 502.23,338.94C500.82,339.58 496.89,340.37 493.49,340.68zM488.00,313.97C487.18,313.97 485.87,313.57 485.09,313.08C484.26,312.55 483.53,310.00 483.31,306.84C483.00,302.28 483.31,301.06 485.47,298.50C487.95,295.56 488.05,295.53 490.89,297.14C493.09,298.39 495.36,298.66 500.29,298.26C506.23,297.79 506.89,297.93 507.96,299.93C508.62,301.15 508.85,303.42 508.49,305.07C508.13,306.69 506.87,308.53 505.69,309.17C504.50,309.80 500.38,311.14 496.52,312.14C492.66,313.15 488.82,313.97 488.00,313.97zM487.23,289.00C485.70,289.00 484.63,288.15 483.98,286.43C483.44,285.02 483.00,282.53 483.00,280.89C483.00,279.24 483.69,276.57 484.53,274.95C485.36,273.33 486.35,272.00 486.71,272.00C487.07,272.00 488.41,272.97 489.67,274.16C491.75,276.11 492.36,276.21 495.85,275.16C497.99,274.52 500.86,274.00 502.24,274.00C503.62,274.00 505.34,274.70 506.04,275.55C506.75,276.41 507.33,278.45 507.33,280.10C507.33,281.75 506.64,283.79 505.79,284.64C504.94,285.49 500.93,286.82 496.87,287.59C492.82,288.37 488.48,289.00 487.23,289.00z" />

</svg>
